<svg width="37" height="38" viewBox="0 0 37 38" fill="none" xmlns="http://www.w3.org/2000/svg">
<path d="M1.85 4.625V8.33717C1.85 23.1522 13.86 35.1622 28.675 35.1622H32.375C33.9076 35.1622 35.15 33.9198 35.15 32.3872V27.6418C35.15 26.4474 34.3857 25.3869 33.2525 25.0092L27.3635 23.0462C26.1763 22.6505 24.8712 23.0983 24.177 24.1395L22.8285 26.1624C22.1343 27.2036 20.8292 27.6514 19.642 27.2557L16.82 26.315C13.9261 25.3504 11.7057 23.0033 10.9031 20.0603L9.74307 15.8068C9.35555 14.3859 10.1455 12.9098 11.5428 12.444L12.6575 12.0725C13.8237 11.6837 14.5338 10.5043 14.3317 9.29176L13.4779 4.16879C13.2549 2.83072 12.0972 1.85 10.7406 1.85H4.625C3.09241 1.85 1.85 3.09241 1.85 4.625ZM0 4.625C0 2.07068 2.07068 0 4.625 0H10.7406C13.0015 0 14.931 1.63454 15.3027 3.86465L16.1565 8.98762C16.5083 11.0981 15.2723 13.1509 13.2425 13.8275L12.1278 14.1991C11.662 14.3544 11.3987 14.8464 11.5279 15.32L12.6879 19.5736C13.3278 21.9198 15.0979 23.7909 17.405 24.56L20.227 25.5006C20.6227 25.6325 21.0578 25.4833 21.2892 25.1362L22.6377 23.1133C23.7947 21.3779 25.9699 20.6316 27.9485 21.2911L33.8376 23.2541C35.7261 23.8837 37 25.6511 37 27.6418V32.3872C37 34.9415 34.9293 37.0122 32.375 37.0122H28.675C12.8382 37.0122 0 24.1739 0 8.33717V4.625Z" fill="black"/>
</svg>
