<svg width="47" height="47" viewBox="0 0 47 47" fill="none" xmlns="http://www.w3.org/2000/svg">
<g clip-path="url(#clip0_105_805)">
<path d="M23.5052 11.4498C16.8367 11.4498 11.4577 16.8299 11.4577 23.5C11.4577 30.17 16.8367 35.5501 23.5052 35.5501C30.1738 35.5501 35.5527 30.17 35.5527 23.5C35.5527 16.8299 30.1738 11.4498 23.5052 11.4498ZM23.5052 31.3342C19.1958 31.3342 15.6728 27.821 15.6728 23.5C15.6728 19.1791 19.1854 15.6658 23.5052 15.6658C27.8252 15.6658 31.3378 19.1791 31.3378 23.5C31.3378 27.821 27.8146 31.3342 23.5052 31.3342ZM38.8557 10.9569C38.8557 12.5195 37.5975 13.7676 36.0455 13.7676C34.4832 13.7676 33.2356 12.509 33.2356 10.9569C33.2356 9.40474 34.4938 8.14621 36.0455 8.14621C37.5975 8.14621 38.8557 9.40474 38.8557 10.9569ZM46.8349 13.8095C46.6567 10.0445 45.7969 6.70942 43.0394 3.96168C40.2922 1.21394 36.9578 0.353955 33.1936 0.165179C29.3142 -0.0550598 17.686 -0.0550598 13.8064 0.165179C10.0527 0.343467 6.71842 1.20345 3.96079 3.9512C1.20318 6.69894 0.353877 10.034 0.165142 13.799C-0.0550475 17.6794 -0.0550475 29.3102 0.165142 33.1905C0.343392 36.9557 1.20318 40.2906 3.96079 43.0384C6.71842 45.786 10.0422 46.6462 13.8064 46.8349C17.686 47.0551 29.3142 47.0551 33.1936 46.8349C36.9578 46.6565 40.2922 45.7966 43.0394 43.0384C45.7863 40.2906 46.6462 36.9557 46.8349 33.1905C47.0551 29.3102 47.0551 17.6899 46.8349 13.8095ZM41.823 37.354C41.0052 39.4098 39.4218 40.9932 37.3564 41.8218C34.263 43.0488 26.9235 42.7656 23.5052 42.7656C20.0871 42.7656 12.7369 43.0384 9.65428 41.8218C7.59918 41.0038 6.01591 39.4201 5.18756 37.354C3.96079 34.2602 4.24389 26.9191 4.24389 23.5C4.24389 20.0811 3.97129 12.7293 5.18756 9.64594C6.00541 7.59039 7.58868 6.00675 9.65428 5.17823C12.7474 3.9512 20.0871 4.23435 23.5052 4.23435C26.9235 4.23435 34.2736 3.96168 37.3564 5.17823C39.4114 5.99627 40.9946 7.57989 41.823 9.64594C43.0497 12.7398 42.7665 20.0811 42.7665 23.5C42.7665 26.9191 43.0497 34.2708 41.823 37.354Z" fill="black"/>
</g>
<defs>
<clipPath id="clip0_105_805">
<rect width="47" height="47" fill="white"/>
</clipPath>
</defs>
</svg>
