<svg width="36" height="41" viewBox="0 0 36 41" fill="none" xmlns="http://www.w3.org/2000/svg">
<path d="M29.4521 29.4515L20.6125 38.2911C20.2259 38.678 19.7669 38.985 19.2616 39.1944C18.7563 39.4039 18.2147 39.5117 17.6677 39.5117C17.1207 39.5117 16.5791 39.4039 16.0738 39.1944C15.5686 38.985 15.1095 38.678 14.7229 38.2911L5.88126 29.4515C3.55047 27.1206 1.96321 24.1508 1.32019 20.9179C0.677173 17.6849 1.00728 14.3338 2.26876 11.2884C3.53025 8.24303 5.66646 5.6401 8.40726 3.80878C11.1481 1.97746 14.3704 1 17.6667 1C20.963 1 24.1853 1.97746 26.9261 3.80878C29.6669 5.6401 31.8031 8.24303 33.0646 11.2884C34.3261 14.3338 34.6562 17.6849 34.0132 20.9179C33.3701 24.1508 31.7829 27.1206 29.4521 29.4515Z" stroke="black" stroke-width="2" stroke-linecap="round" stroke-linejoin="round"/>
<path d="M23.9167 17.666C23.9167 19.3236 23.2583 20.9133 22.0862 22.0854C20.9141 23.2575 19.3244 23.916 17.6667 23.916C16.0091 23.916 14.4194 23.2575 13.2473 22.0854C12.0752 20.9133 11.4167 19.3236 11.4167 17.666C11.4167 16.0084 12.0752 14.4187 13.2473 13.2466C14.4194 12.0745 16.0091 11.416 17.6667 11.416C19.3244 11.416 20.9141 12.0745 22.0862 13.2466C23.2583 14.4187 23.9167 16.0084 23.9167 17.666Z" stroke="black" stroke-width="2" stroke-linecap="round" stroke-linejoin="round"/>
</svg>
