<svg width="46" height="38" viewBox="0 0 46 38" fill="none" xmlns="http://www.w3.org/2000/svg">
<path d="M43.6859 2.01906C43.6859 2.01906 39.8623 4.27789 37.7362 4.91812C36.5949 3.60598 35.0783 2.67597 33.3914 2.25387C31.7044 1.83178 29.9286 1.93794 28.304 2.55804C26.6794 3.17814 25.2842 4.28222 24.3076 5.72097C23.3309 7.15974 22.8196 8.86375 22.8429 10.6026V12.4974C19.513 12.5837 16.2135 11.8452 13.2382 10.3476C10.2628 8.84999 7.70399 6.63981 5.78963 3.91387C5.78963 3.91387 -1.78963 20.9673 15.2637 28.5465C11.3614 31.1953 6.7127 32.5235 2 32.3361C19.0533 41.8102 39.8963 32.3361 39.8963 10.5457C39.8946 10.0179 39.8438 9.49143 39.7447 8.97302C41.6785 7.06588 43.6859 2.01906 43.6859 2.01906Z" stroke="#FCFCF4" stroke-width="3" stroke-linecap="round" stroke-linejoin="round"/>
</svg>
