<svg width="47" height="47" viewBox="0 0 47 47" fill="none" xmlns="http://www.w3.org/2000/svg">
<g clip-path="url(#clip0_105_808)">
<path d="M47 23.5C47 10.5182 36.4819 0 23.5 0C10.5182 0 0 10.5182 0 23.5C0 35.2291 8.5936 44.9513 19.8281 46.7156V30.2931H13.8584V23.5H19.8281V18.3224C19.8281 12.4332 23.3342 9.18016 28.7041 9.18016C31.2759 9.18016 33.965 9.63878 33.965 9.63878V15.419H31.001C28.0825 15.419 27.1719 17.2308 27.1719 19.089V23.5H33.6894L32.6469 30.2931H27.1719V46.7156C38.4063 44.9513 47 35.2291 47 23.5Z" fill="black"/>
</g>
<defs>
<clipPath id="clip0_105_808">
<rect width="47" height="47" fill="white"/>
</clipPath>
</defs>
</svg>
