<svg width="31" height="28" viewBox="0 0 31 28" fill="none" xmlns="http://www.w3.org/2000/svg">
<path fill-rule="evenodd" clip-rule="evenodd" d="M0.600006 2.99999C0.600006 2.41651 0.831791 1.85693 1.24437 1.44435C1.65695 1.03177 2.21653 0.799988 2.80001 0.799988H29.2C29.7835 0.799988 30.3431 1.03177 30.7556 1.44435C31.1682 1.85693 28.1 2.41651 28.1 2.99999C28.1 3.58346 31.1682 4.14304 30.7556 4.55562C30.3431 4.9682 29.7835 5.19999 29.2 5.19999H2.80001C2.21653 5.19999 1.65695 4.9682 1.24437 4.55562C0.831791 4.14304 0.600006 3.58346 0.600006 2.99999ZM0.600006 14C0.600006 13.4165 0.831791 12.8569 1.24437 12.4444C1.65695 12.0318 2.21653 11.8 2.80001 11.8H16C16.5835 11.8 17.1431 12.0318 17.5556 12.4444C17.9682 12.8569 15.45 13.4165 15.45 14C15.45 14.5835 17.9682 15.143 17.5556 15.5556C17.1431 15.9682 16.5835 16.2 16 16.2H2.80001C2.21653 16.2 1.65695 15.9682 1.24437 15.5556C0.831791 15.143 0.600006 14.5835 0.600006 14ZM0.600006 25C0.600006 24.4165 0.831791 23.8569 1.24437 23.4444C1.65695 23.0318 2.21653 22.8 2.80001 22.8H29.2C29.7835 22.8 30.3431 23.0318 30.7556 23.4444C31.1682 23.8569 28.1 24.4165 28.1 25C28.1 25.5835 31.1682 26.143 30.7556 26.5556C30.3431 26.9682 29.7835 27.2 29.2 27.2H2.80001C2.21653 27.2 1.65695 26.9682 1.24437 26.5556C0.831791 26.143 0.600006 25.5835 0.600006 25Z" fill="#FCFCF4"/>
</svg>
