<svg width="53" height="43" viewBox="0 0 53 43" fill="none" xmlns="http://www.w3.org/2000/svg">
<path d="M50 2.78456C50 2.78456 45.689 5.27411 43.2918 5.97975C42.0051 4.53358 40.2951 3.50857 38.3931 3.04335C36.4911 2.57814 34.4889 2.69515 32.6572 3.37859C30.8255 4.06203 29.2525 5.27889 28.1514 6.86461C27.0501 8.45034 26.4737 10.3284 26.5 12.2448V14.3332C22.7456 14.4283 19.0254 13.6144 15.6708 11.9638C12.3161 10.3132 9.43114 7.8773 7.27273 4.87292C7.27273 4.87292 -1.27273 23.6682 17.9545 32.0217C13.5548 34.941 8.31348 36.405 3 36.1984C22.2273 46.6402 45.7273 36.1984 45.7273 12.1822C45.7254 11.6005 45.6681 11.0202 45.5564 10.4488C47.7367 8.34689 50 2.78456 50 2.78456Z" stroke="black" stroke-width="5" stroke-linecap="round" stroke-linejoin="round"/>
</svg>
