<svg width="50" height="50" viewBox="0 0 50 50" fill="none" xmlns="http://www.w3.org/2000/svg">
<path d="M18.0916 27.7958C18.5125 26.9542 18.75 26.0042 18.75 25C18.75 23.9958 18.5125 23.0458 18.0916 22.2042M18.0916 27.7958C17.4618 29.055 16.4254 30.0646 15.1502 30.6612C13.8749 31.2577 12.4356 31.4063 11.0655 31.0827C9.69529 30.7592 8.47448 29.9825 7.60082 28.8785C6.72716 27.7745 6.25183 26.4079 6.25183 25C6.25183 23.5922 6.72716 22.2255 7.60082 21.1215C8.47448 20.0175 9.69529 19.2409 11.0655 18.9173C12.4356 18.5938 13.8749 18.7423 15.1502 19.3388C16.4254 19.9354 17.4618 20.945 18.0916 22.2042M18.0916 27.7958L31.9083 34.7042M18.0916 22.2042L31.9083 15.2958M31.9083 34.7042C31.1668 36.1872 31.0448 37.904 31.5691 39.477C32.0934 41.0499 33.2211 42.3502 34.7041 43.0917C36.1871 43.8332 37.9039 43.9552 39.4769 43.4309C41.0499 42.9065 42.3501 41.7788 43.0916 40.2958C43.8331 38.8128 43.9551 37.096 43.4308 35.5231C42.9065 33.9501 41.7788 32.6498 40.2958 31.9083C39.5615 31.5412 38.7621 31.3223 37.9431 31.2641C37.1242 31.2059 36.3019 31.3095 35.523 31.5692C33.95 32.0935 32.6498 33.2212 31.9083 34.7042ZM31.9083 15.2958C32.2754 16.03 32.7836 16.6847 33.4038 17.2225C34.0239 17.7602 34.7439 18.1706 35.5227 18.4301C36.3015 18.6897 37.1237 18.7932 37.9425 18.735C38.7613 18.6767 39.5606 18.4578 40.2947 18.0906C41.0289 17.7235 41.6836 17.2153 42.2214 16.5952C42.7592 15.975 43.1695 15.255 43.429 14.4762C43.6886 13.6975 43.7922 12.8752 43.7339 12.0564C43.6756 11.2377 43.4567 10.4384 43.0895 9.70418C42.348 8.22146 41.0479 7.09402 39.4751 6.56989C37.9024 6.04577 36.1858 6.16789 34.7031 6.90939C33.2204 7.65089 32.0929 8.95103 31.5688 10.5238C31.0447 12.0966 31.1668 13.8131 31.9083 15.2958Z" stroke="black" stroke-width="2" stroke-linecap="round" stroke-linejoin="round"/>
</svg>
