<svg width="34" height="34" viewBox="0 0 34 34" fill="none" xmlns="http://www.w3.org/2000/svg">
<g clip-path="url(#clip0_23_177)">
<path d="M34 17C34 7.60888 26.3911 0 17 0C7.60888 0 0 7.60888 0 17C0 25.4849 6.21664 32.5179 14.3438 33.7943V21.9142H10.0252V17H14.3438V13.2545C14.3438 8.99424 16.88 6.64097 20.7647 6.64097C22.6251 6.64097 24.5704 6.97274 24.5704 6.97274V11.1542H22.4262C20.315 11.1542 19.6562 12.4648 19.6562 13.8091V17H24.371L23.6169 21.9142H19.6562V33.7943C27.7833 32.5179 34 25.4849 34 17Z" fill="#FCFCF4"/>
</g>
<defs>
<clipPath id="clip0_23_177">
<rect width="34" height="34" fill="white"/>
</clipPath>
</defs>
</svg>
