<svg width="34" height="34" viewBox="0 0 34 34" fill="none" xmlns="http://www.w3.org/2000/svg">
<g clip-path="url(#clip0_23_180)">
<path d="M17.0038 8.28284C12.1797 8.28284 8.28858 12.1748 8.28858 17C8.28858 21.8251 12.1797 25.7171 17.0038 25.7171C21.8279 25.7171 25.719 21.8251 25.719 17C25.719 12.1748 21.8279 8.28284 17.0038 8.28284ZM17.0038 22.6673C13.8863 22.6673 11.3378 20.1258 11.3378 17C11.3378 13.8743 13.8788 11.3327 17.0038 11.3327C20.1289 11.3327 22.6699 13.8743 22.6699 17C22.6699 20.1258 20.1212 22.6673 17.0038 22.6673ZM28.1083 7.92626C28.1083 9.05669 27.1982 9.95951 26.0755 9.95951C24.9453 9.95951 24.0428 9.04909 24.0428 7.92626C24.0428 6.80343 24.953 5.89301 26.0755 5.89301C27.1982 5.89301 28.1083 6.80343 28.1083 7.92626ZM33.8805 9.98986C33.7517 7.26622 33.1296 4.85362 31.1349 2.8659C29.1476 0.878167 26.7354 0.256053 24.0124 0.119491C21.206 -0.0398305 12.7941 -0.0398305 9.98763 0.119491C7.27218 0.248466 4.86014 0.87058 2.86525 2.85832C0.870386 4.84604 0.255996 7.25864 0.119465 9.98228C-0.0398216 12.7894 -0.0398216 21.2031 0.119465 24.0101C0.248411 26.7339 0.870386 29.1464 2.86525 31.1342C4.86014 33.1218 7.26459 33.744 9.98763 33.8805C12.7941 34.0398 21.206 34.0398 24.0124 33.8805C26.7354 33.7515 29.1476 33.1295 31.1349 31.1342C33.122 29.1464 33.744 26.7339 33.8805 24.0101C34.0398 21.2031 34.0398 12.797 33.8805 9.98986ZM30.2549 27.022C29.6633 28.5092 28.5179 29.6547 27.0237 30.2541C24.786 31.1417 19.4766 30.9368 17.0038 30.9368C14.5311 30.9368 9.21396 31.1342 6.98395 30.2541C5.49728 29.6623 4.35194 28.5167 3.7527 27.022C2.86525 24.784 3.07005 19.4734 3.07005 17C3.07005 14.5267 2.87285 9.20842 3.7527 6.97791C4.34434 5.49092 5.48968 4.34531 6.98395 3.74595C9.22154 2.85832 14.5311 3.06315 17.0038 3.06315C19.4766 3.06315 24.7937 2.8659 27.0237 3.74595C28.5104 4.33773 29.6557 5.48332 30.2549 6.97791C31.1423 9.21602 30.9375 14.5267 30.9375 17C30.9375 19.4734 31.1423 24.7916 30.2549 27.022Z" fill="#FCFCF4"/>
</g>
<defs>
<clipPath id="clip0_23_180">
<rect width="34" height="34" fill="white"/>
</clipPath>
</defs>
</svg>
